
<svg width="380" height="505" viewBox="0 0 380 505" fill="none" xmlns="http://www.w3.org/2000/svg">
<mask id="path-1-inside-1_10306_30554" fill="white">
<path fill-rule="evenodd" clip-rule="evenodd" d="M12.9972 296.723C4.60646 313.962 0 332.728 0 352.359C0 436.66 84.9457 505 189.732 505C294.518 505 379.463 436.66 379.463 352.359C379.463 332.728 374.857 313.962 366.466 296.723C374.857 279.484 379.463 260.719 379.463 241.088C379.463 225.709 376.637 210.862 371.378 196.864C376.637 182.866 379.463 168.019 379.463 152.641C379.463 68.3398 294.518 0 189.732 0C84.9457 0 0 68.3398 0 152.641C0 168.019 2.82672 182.866 8.08494 196.864C2.82672 210.862 0 225.709 0 241.088C0 260.719 4.60647 279.484 12.9972 296.723Z"/>
</mask>
<path fill-rule="evenodd" clip-rule="evenodd" d="M12.9972 296.723C4.60646 313.962 0 332.728 0 352.359C0 436.66 84.9457 505 189.732 505C294.518 505 379.463 436.66 379.463 352.359C379.463 332.728 374.857 313.962 366.466 296.723C374.857 279.484 379.463 260.719 379.463 241.088C379.463 225.709 376.637 210.862 371.378 196.864C376.637 182.866 379.463 168.019 379.463 152.641C379.463 68.3398 294.518 0 189.732 0C84.9457 0 0 68.3398 0 152.641C0 168.019 2.82672 182.866 8.08494 196.864C2.82672 210.862 0 225.709 0 241.088C0 260.719 4.60647 279.484 12.9972 296.723Z" fill="white"/>
<path d="M12.9972 296.723L15.5626 297.972L16.1704 296.723L15.5626 295.474L12.9972 296.723ZM366.466 296.723L363.901 295.474L363.293 296.723L363.901 297.972L366.466 296.723ZM371.378 196.864L368.707 195.861L368.331 196.864L368.707 197.868L371.378 196.864ZM8.08494 196.864L10.7558 197.868L11.1327 196.864L10.7558 195.861L8.08494 196.864ZM10.4319 295.474C1.86186 313.081 -2.85311 332.272 -2.85311 352.359H2.85311C2.85311 333.183 7.35107 314.842 15.5626 297.972L10.4319 295.474ZM-2.85311 352.359C-2.85311 438.784 83.9807 507.853 189.732 507.853V502.147C85.9108 502.147 2.85311 434.536 2.85311 352.359H-2.85311ZM189.732 507.853C295.483 507.853 382.316 438.784 382.316 352.359H376.61C376.61 434.536 293.553 502.147 189.732 502.147V507.853ZM382.316 352.359C382.316 332.272 377.601 313.081 369.031 295.474L363.901 297.972C372.112 314.842 376.61 333.183 376.61 352.359H382.316ZM376.61 241.088C376.61 260.264 372.112 278.604 363.901 295.474L369.031 297.972C377.601 280.365 382.316 261.174 382.316 241.088H376.61ZM368.707 197.868C373.849 211.556 376.61 226.064 376.61 241.088H382.316C382.316 225.355 379.424 210.169 374.049 195.861L368.707 197.868ZM374.049 197.868C379.424 183.56 382.316 168.374 382.316 152.641H376.61C376.61 167.665 373.849 182.173 368.707 195.861L374.049 197.868ZM382.316 152.641C382.316 66.2159 295.483 -2.85311 189.732 -2.85311V2.85311C293.553 2.85311 376.61 70.4637 376.61 152.641H382.316ZM189.732 -2.85311C83.9807 -2.85311 -2.85311 66.2159 -2.85311 152.641H2.85311C2.85311 70.4637 85.9108 2.85311 189.732 2.85311V-2.85311ZM-2.85311 152.641C-2.85311 168.374 0.0394444 183.56 5.41405 197.868L10.7558 195.861C5.61399 182.173 2.85311 167.665 2.85311 152.641H-2.85311ZM2.85311 241.088C2.85311 226.064 5.61399 211.556 10.7558 197.868L5.41405 195.861C0.0394444 210.169 -2.85311 225.355 -2.85311 241.088H2.85311ZM15.5626 295.474C7.35107 278.604 2.85311 260.264 2.85311 241.088H-2.85311C-2.85311 261.174 1.86186 280.365 10.4319 297.972L15.5626 295.474Z" fill="black" mask="url(#path-1-inside-1_10306_30554)"/>
</svg>
