<svg width="288" height="283" viewBox="0 0 288 283" fill="none" xmlns="http://www.w3.org/2000/svg">
<path fill-rule="evenodd" clip-rule="evenodd" d="M144 0C144 18.582 140.275 36.9821 133.039 54.1497C125.802 71.3173 115.195 86.9161 101.823 100.056C88.4517 113.195 72.5773 123.618 55.1064 130.729C37.6355 137.84 18.9103 141.5 0 141.5C18.9103 141.5 37.6355 145.16 55.1064 152.271C72.5773 159.382 88.4517 169.805 101.823 182.944C115.195 196.084 125.802 211.683 133.039 228.85C140.275 246.018 144 264.418 144 283C144 264.418 147.725 246.018 154.961 228.85C162.198 211.683 172.805 196.084 186.177 182.944C199.548 169.805 215.423 159.382 232.894 152.271C250.364 145.16 269.09 141.5 288 141.5C269.09 141.5 250.364 137.84 232.894 130.729C215.423 123.618 199.548 113.195 186.177 100.056C172.805 86.9161 162.198 71.3173 154.961 54.1497C147.725 36.9821 144 18.582 144 0Z" fill="white" stroke="black" stroke-width="16"/>
</svg>
