<svg width="38" height="57" viewBox="0 0 38 57" fill="none" xmlns="http://www.w3.org/2000/svg">
<mask id="path-1-inside-1_1117_19658" fill="white">
<path fill-rule="evenodd" clip-rule="evenodd" d="M0 28.5C6.33333 27.075 19 19.38 19 0C19 19.38 31.6667 27.075 38 28.5C31.6667 29.925 19 37.62 19 57C19 37.62 6.33333 29.925 0 28.5Z"/>
</mask>
<path fill-rule="evenodd" clip-rule="evenodd" d="M0 28.5C6.33333 27.075 19 19.38 19 0C19 19.38 31.6667 27.075 38 28.5C31.6667 29.925 19 37.62 19 57C19 37.62 6.33333 29.925 0 28.5Z" fill="white"/>
<path d="M0 28.5L-0.658537 25.5732V31.4268L0 28.5ZM38 28.5L38.6585 31.4268V25.5732L38 28.5ZM16 0C16 17.7576 4.53191 24.4053 -0.658537 25.5732L0.658537 31.4268C8.13476 29.7447 22 21.0024 22 0H16ZM38.6585 25.5732C33.4681 24.4053 22 17.7576 22 0H16C16 21.0024 29.8652 29.7447 37.3415 31.4268L38.6585 25.5732ZM22 57C22 39.2424 33.4681 32.5947 38.6585 31.4268L37.3415 25.5732C29.8652 27.2553 16 35.9976 16 57H22ZM-0.658537 31.4268C4.53191 32.5947 16 39.2424 16 57H22C22 35.9976 8.13476 27.2553 0.658537 25.5732L-0.658537 31.4268Z" fill="black" mask="url(#path-1-inside-1_1117_19658)"/>
</svg>
