<svg clip-rule="evenodd" fill-rule="evenodd" stroke-linejoin="round" stroke-miterlimit="2" viewBox="0 0 560 400" xmlns="http://www.w3.org/2000/svg"><g fill-rule="nonzero" transform="matrix(.28125 0 0 .28125 145 65)"><path d="m804.6 960h-649.2c-85.82 0-155.4-69.58-155.4-155.4v-649.2c0-85.82 69.58-155.4 155.4-155.4h649.2c85.82 0 155.4 69.58 155.4 155.4v649.2c0 85.82-69.58 155.4-155.4 155.4z"/><path d="m404.63 392.13c-11.92-7.93-51.53-35.49-51.53-35.49 33.4-47.88 77.46-66.52 138.36-66.52 43.07 0 79.64 14.52 105.75 42 26.12 27.49 41.02 66.8 44.41 117.07 14.48 6.07 27.85 13.22 39.99 21.4 48.96 33 75.92 82.34 75.92 138.91 0 120.23-98.34 224.67-276.35 224.67-152.84 0-311.63-89.11-311.63-354.45 0-263.83 153.81-353.92 311.2-353.92 72.68 0 243.16 10.76 307.27 222.94l-60.12 15.63c-49.57-151.17-153.5-175.23-248.79-175.23-157.52 0-246.62 96.13-246.62 300.65 0 183.38 99.59 280.8 248.71 280.8 122.68 0 214.15-63.9 214.15-157.44 0-63.66-53.37-94.14-56.1-94.14-10.42 54.62-38.36 146.5-161.01 146.5-71.46 0-133.07-49.47-133.07-114.29 0-92.56 87.61-126.06 156.8-126.06 25.91 0 57.18 1.75 73.46 5.07 0-28.21-23.81-76.49-83.96-76.49-55.15-.01-69.14 17.92-86.84 38.39zm105.8 96.25c-90.13 0-101.79 38.51-101.79 62.7 0 38.86 46.07 51.74 70.65 51.74 45.06 0 91.35-12.52 98.63-107.31-22.85-5.14-39.88-7.13-67.49-7.13z" fill="#fff"/></g></svg>